<svg width="24" height="24" viewBox="0 0 24 24" fill="none" xmlns="http://www.w3.org/2000/svg">
<path d="M12.0001 3C7.05673 3 3 7.0567 3 12C3 16.2183 5.96001 20.0502 9.89068 21V18.0224C9.50121 18.1077 9.14278 18.1102 8.74631 17.9933C8.21443 17.8363 7.78225 17.482 7.46144 16.9418C7.25696 16.5968 6.89455 16.2227 6.51648 16.2502L6.42378 15.1996C7.2413 15.1296 7.94855 15.6977 8.36837 16.403C8.55487 16.7167 8.76951 16.9006 9.045 16.9819C9.31128 17.0603 9.5972 17.0227 9.93037 16.905C10.014 16.238 10.3196 15.9883 10.5504 15.6367V15.6362C8.20619 15.2866 7.27193 14.0429 6.90114 13.0613C6.40977 11.7579 6.67344 10.1296 7.54233 9.10057C7.55922 9.08052 7.58971 9.02806 7.5779 8.99139C7.17951 7.78798 7.66497 6.79248 7.68282 6.68687C8.1426 6.82283 8.21731 6.55009 9.68001 7.43875L9.93284 7.59064C10.0386 7.65367 10.0053 7.61769 10.1111 7.60973C10.7218 7.44383 11.3656 7.35223 11.9999 7.34399C12.6391 7.35223 13.2787 7.44383 13.9147 7.61646L13.9966 7.62469C13.9894 7.6236 14.0188 7.61948 14.0681 7.59009C15.8953 6.48335 15.8297 6.84508 16.3197 6.68578C16.3374 6.79152 16.8164 7.80322 16.4222 8.99139C16.3691 9.15509 18.0063 10.6543 17.0989 13.0609C16.7281 14.0429 15.794 15.2866 13.4497 15.6362V15.6367C13.7502 16.0947 14.1112 16.3384 14.1093 17.2832V21C18.0401 20.0502 21 16.2183 21 12C21.0001 7.0567 16.9434 3 12.0001 3V3Z" fill="#0E153A"/>
</svg>
