<svg width="25" height="24" viewBox="0 0 25 24" fill="none" xmlns="http://www.w3.org/2000/svg">
<path d="M19.1133 3H6.38672C4.93295 3 3.75 4.18295 3.75 5.63672V18.3633C3.75 19.817 4.93295 21 6.38672 21H19.1133C20.567 21 21.75 19.817 21.75 18.3633V5.63672C21.75 4.18295 20.567 3 19.1133 3ZM12.7852 16.7109C10.1681 16.7109 8.03906 14.5819 8.03906 11.9648C8.03906 9.34776 10.1681 7.21875 12.7852 7.21875C15.4022 7.21875 17.5312 9.34776 17.5312 11.9648C17.5312 14.5819 15.4022 16.7109 12.7852 16.7109ZM18.0586 8.27344C17.1863 8.27344 16.4766 7.56372 16.4766 6.69141C16.4766 5.81909 17.1863 5.10938 18.0586 5.10938C18.9309 5.10938 19.6406 5.81909 19.6406 6.69141C19.6406 7.56372 18.9309 8.27344 18.0586 8.27344Z" fill="#0E153A"/>
<path d="M18.0586 6.16406C17.7676 6.16406 17.5312 6.40041 17.5312 6.69141C17.5312 6.98241 17.7676 7.21875 18.0586 7.21875C18.3496 7.21875 18.5859 6.98241 18.5859 6.69141C18.5859 6.40041 18.3496 6.16406 18.0586 6.16406Z" fill="#0E153A"/>
<path d="M12.7852 8.27344C10.7499 8.27344 9.09375 9.92963 9.09375 11.9648C9.09375 14.0001 10.7499 15.6562 12.7852 15.6562C14.8204 15.6562 16.4766 14.0001 16.4766 11.9648C16.4766 9.92963 14.8204 8.27344 12.7852 8.27344Z" fill="#0E153A"/>
</svg>
