<svg width="25" height="24" viewBox="0 0 25 24" fill="none" xmlns="http://www.w3.org/2000/svg">
<path d="M9.9652 21C9.18683 21 8.38566 20.923 7.57968 20.7686C6.16012 20.4965 4.72312 19.5892 4.31649 19.3175L3.25 18.6051L4.40465 18.1411C5.66684 17.6341 6.43464 17.3195 7.38509 16.8268C6.4334 16.2637 5.69993 15.2507 5.34686 13.9413L5.07825 12.9449L5.29852 12.986C5.08965 12.7288 4.92472 12.4677 4.79686 12.2303C4.34217 11.3865 4.10143 10.3554 4.15266 9.47176L4.20319 8.60209L4.62932 8.80378C4.44956 8.38899 4.31965 7.94602 4.24329 7.48173C4.05721 6.34947 4.21294 5.14656 4.68192 4.09466L5.05312 3.26207L5.54956 3.99063C7.11963 6.2951 9.10828 7.66211 11.4685 8.0623C11.3721 7.25035 11.4444 6.46675 11.6835 5.76437C11.9618 4.94655 12.457 4.25306 13.1151 3.75874C13.846 3.20989 14.7323 2.94393 15.6108 3.00988C16.5428 3.07985 17.389 3.50654 18.0611 4.24467C18.3893 4.14047 18.6312 4.02922 18.958 3.87888C19.1546 3.78844 19.3777 3.68575 19.6567 3.56829L20.685 3.13538L20.0145 5.47543C20.0587 5.4709 20.1043 5.46704 20.1519 5.46452L21.25 5.40378L20.601 6.48756C20.5638 6.54964 20.5543 6.56726 20.5411 6.59159C20.4888 6.6879 20.4237 6.80771 19.5329 8.26113C19.3098 8.62508 19.1985 9.09909 19.2192 9.5961C19.2982 11.4848 19.1085 13.1936 18.6552 14.6749C18.2264 16.0763 17.5621 17.2787 16.6807 18.2487C15.59 19.4488 14.1993 20.2704 12.547 20.6906C11.7365 20.8966 10.8661 21 9.9652 21Z" fill="#0E153A"/>
</svg>
