<svg width="25" height="24" viewBox="0 0 25 24" fill="none" xmlns="http://www.w3.org/2000/svg">
<path d="M18.8633 3H6.13672C4.68295 3 3.5 4.18295 3.5 5.63672V18.3633C3.5 19.817 4.68295 21 6.13672 21H18.8633C20.317 21 21.5 19.817 21.5 18.3633V5.63672C21.5 4.18295 20.317 3 18.8633 3ZM9.86328 17.2734H7.75391V9.89062H9.86328V17.2734ZM9.86328 8.83594H7.75391V6.72656H9.86328V8.83594ZM17.2461 17.2734H15.1367V13.0547C15.1367 12.4732 14.6635 12 14.082 12C13.5006 12 13.0273 12.4732 13.0273 13.0547V17.2734H10.918V9.89062H13.0273V10.2882C13.58 10.1164 13.9389 9.89062 14.6094 9.89062C16.0399 9.89214 17.2461 11.1755 17.2461 12.6921V17.2734Z" fill="#0E153A"/>
</svg>
