<?xml version="1.0" encoding="UTF-8" standalone="no"?>
<svg
   xmlns:dc="http://purl.org/dc/elements/1.1/"
   xmlns:cc="http://creativecommons.org/ns#"
   xmlns:rdf="http://www.w3.org/1999/02/22-rdf-syntax-ns#"
   xmlns:svg="http://www.w3.org/2000/svg"
   xmlns="http://www.w3.org/2000/svg"
   width="50mm"
   height="50mm"
   viewBox="0 0 50 50"
   version="1.1"
   id="svg8">
  <defs
     id="defs2" />
  <metadata
     id="metadata5">
    <rdf:RDF>
      <cc:Work
         rdf:about="">
        <dc:format>image/svg+xml</dc:format>
        <dc:type
           rdf:resource="http://purl.org/dc/dcmitype/StillImage" />
        <dc:title></dc:title>
      </cc:Work>
    </rdf:RDF>
  </metadata>
  <g
     id="layer1"
     transform="translate(-3.415813,-0.6282092)">
    <g
       id="g973"
       transform="translate(-102.02602,-122.65423)">
      <g
         id="g958">
        <circle
           style="opacity:0.992;fill:#397b6e;fill-opacity:1;stroke:#821599;stroke-width:0"
           id="path853-4-3-5"
           cx="130.44183"
           cy="148.28244"
           r="20" />
        <circle
           style="opacity:0.992;fill:#5cc5b1;fill-opacity:1;stroke:#821599;stroke-width:0"
           id="path853-4-3"
           cx="130.44183"
           cy="148.28244"
           r="15.999999" />
        <circle
           style="opacity:0.992;fill:#6ce7cf;fill-opacity:1;stroke:#821599;stroke-width:0"
           id="path853-4-1"
           cx="130.44183"
           cy="148.28244"
           r="12.499999" />
        <circle
           style="opacity:0.992;fill:#72f4da;fill-opacity:1;stroke:#821599;stroke-width:0"
           id="path853-4"
           cx="130.44183"
           cy="148.28244"
           r="12.499999" />
        <circle
           style="opacity:0.992;fill:#b8f9ec;fill-opacity:1;stroke:#821599;stroke-width:0"
           id="path853"
           cx="130.44183"
           cy="148.28244"
           r="9" />
        <circle
           style="opacity:0.992;fill:#dbfcf5;fill-opacity:1;stroke:#821599;stroke-width:0"
           id="path851"
           cx="130.44183"
           cy="148.28244"
           r="4.9999995" />
      </g>
      <g
         id="g950"
         transform="translate(0.11288502,-47.787354)">
        <path
           style="opacity:0.992;fill:#239da2;fill-opacity:1;stroke:#821599;stroke-width:0"
           id="path853-4-3-5-7"
           d="m -176.06979,130.32895 a 20,20 0 0 1 -10,17.32051 20,20 0 0 1 -20,0 20,20 0 0 1 -10,-17.32051"
           transform="rotate(-90)" />
        <path
           style="opacity:0.992;fill:#2ab8bf;fill-opacity:1;stroke:#821599;stroke-width:0"
           id="path853-4-3-3"
           d="m -180.06979,130.32895 a 15.999999,15.999999 0 0 1 -8,13.8564 15.999999,15.999999 0 0 1 -16,0 15.999999,15.999999 0 0 1 -8,-13.8564"
           transform="rotate(-90)" />
        <path
           style="opacity:0.992;fill:#2bc2c8;fill-opacity:1;stroke:#821599;stroke-width:0"
           id="path853-4-2"
           d="m -183.56979,130.32895 a 12.499999,12.499999 0 0 1 -6.25,10.82532 12.499999,12.499999 0 0 1 -12.5,0 12.499999,12.499999 0 0 1 -6.25,-10.82532"
           transform="rotate(-90)" />
        <path
           style="opacity:0.992;fill:#95e0e3;fill-opacity:1;stroke:#821599;stroke-width:0"
           id="path853-6"
           d="m -187.06979,130.32895 a 9,9 0 0 1 -4.5,7.79423 9,9 0 0 1 -9,0 9,9 0 0 1 -4.5,-7.79423"
           transform="rotate(-90)" />
        <path
           style="opacity:0.992;fill:#caeff1;fill-opacity:1;stroke:#821599;stroke-width:0"
           id="path851-5"
           d="m -191.06979,130.32895 a 4.9999995,4.9999995 0 0 1 -2.5,4.33013 4.9999995,4.9999995 0 0 1 -5,0 4.9999995,4.9999995 0 0 1 -2.5,-4.33013"
           transform="rotate(-90)" />
      </g>
    </g>
  </g>
</svg>
